#N canvas 561 42 410 442 10;
#X msg 85 151 reload;
#X msg 174 308 reload;
#X obj 74 378 nbx 5 16 -1e+37 1e+37 0 0 empty empty empty 0 -9 0 10 #fcfcfc #000000 #000000 0 256;
#X msg 224 150 llll <0x12d60f0e0>;
#X msg 119 273 list [1 2] [3 4];
#X msg 74 102 list [1 [2 4] 4 5 [6 7]] 1;
#X msg 51 55 1 [1 [2 3] [4 5 6]];
#X msg 105 183 1 2 [3 4];
#X msg 117 222 1 2 3 4;
#X obj 74 307 bhack.mklist;
#X obj 74 356 bhack.length;
#X msg 31 26 list [1 [2 2] 3] [1 [2 2] 3];
#X connect 0 0 9 0;
#X connect 1 0 10 0;
#X connect 4 0 9 0;
#X connect 5 0 9 0;
#X connect 6 0 9 0;
#X connect 7 0 9 0;
#X connect 8 0 9 0;
#X connect 9 0 10 0;
#X connect 10 0 2 0;
#X connect 11 0 9 0;
